<svg width="512" height="512" viewBox="0 0 512 512" fill="none" xmlns="http://www.w3.org/2000/svg">
  <defs>
    <clipPath id="round-corner"><rect width="512" height="512" rx="120"/></clipPath>
    <pattern id="honeycomb" x="0" y="0" width="20" height="34.6" patternUnits="userSpaceOnUse" patternTransform="scale(2)">
      <path d="M10 0L19.5 5.2V15.6L10 20.8L0.5 15.6V5.2L10 0Z" fill="none" stroke="#ffffff" stroke-opacity="0.03" stroke-width="1"/>
      <path d="M10 34.6L19.5 29.4V19L10 13.8L0.5 19V29.4L10 34.6Z" fill="none" stroke="#ffffff" stroke-opacity="0.03" stroke-width="1"/>
    </pattern>
    <radialGradient id="bg-grad" cx="50%" cy="50%" r="70%">
      <stop stop-color="#090c24"/>
      <stop offset="1" stop-color="#1d082e"/>
    </radialGradient>
    <linearGradient id="cyan-blue" x1="0" y1="0" x2="1" y2="1"><stop stop-color="#00f6ff"/><stop offset="1" stop-color="#0057ff"/></linearGradient>
    <linearGradient id="purple-pink" x1="1" y1="0" x2="0" y2="1"><stop stop-color="#ff00f7"/><stop offset="1" stop-color="#6200ff"/></linearGradient>

    <filter id="strong-glow" x="-50%" y="-50%" width="200%" height="200%">
      <feGaussianBlur in="SourceGraphic" stdDeviation="4" result="blur1"/>
      <feGaussianBlur in="SourceGraphic" stdDeviation="10" result="blur2"/>
      <feGaussianBlur in="SourceGraphic" stdDeviation="25" result="blur3"/>
      <feMerge>
        <feMergeNode in="blur3"/>
        <feMergeNode in="blur2"/>
        <feMergeNode in="blur1"/>
        <feMergeNode in="SourceGraphic"/>
      </feMerge>
    </filter>
    <filter id="soft-glow"><feGaussianBlur stdDeviation="2.5" result="blur"/><feMerge><feMergeNode in="blur"/><feMergeNode in="SourceGraphic"/></feMerge></filter>

    <path id="arm-shape" d="M130 120 L245 235 L220 260 L105 145 Z" />
  </defs>

  <g clip-path="url(#round-corner)">
    <rect width="512" height="512" fill="url(#bg-grad)"/>
    <rect width="512" height="512" fill="url(#honeycomb)"/>

    <g filter="url(#soft-glow)" stroke="#00eaff" stroke-width="1.5" fill="#00eaff" opacity="0.8">
      <path d="M256 160 V130 M280 150 V120 M232 150 V120 M160 256 H130 M150 280 H120 M150 232 H120 M256 352 V382 M280 362 V392 M232 362 V392 M352 256 H382 M362 280 H392 M362 232 H392"/>
      <circle cx="256" cy="160" r="2.5"/><circle cx="280" cy="150" r="2.5"/><circle cx="232" cy="150" r="2.5"/><circle cx="160" cy="256" r="2.5"/><circle cx="150" cy="280" r="2.5"/><circle cx="150" cy="232" r="2.5"/><circle cx="256" cy="352" r="2.5"/><circle cx="280" cy="362" r="2.5"/><circle cx="232" cy="362" r="2.5"/><circle cx="352" cy="256" r="2.5"/><circle cx="362" cy="280" r="2.5"/><circle cx="362" cy="232" r="2.5"/>
      <rect x="252" y="115" width="8" height="6"/><rect x="115" y="252" width="6" height="8"/><rect x="252" y="390" width="8" height="6"/><rect x="390" y="252" width="6" height="8"/>
    </g>

    <g>
      <g transform="translate(0,0)">
        <use href="#arm-shape" fill="url(#cyan-blue)" opacity="0.2"/> <g clip-path="url(#arm-shape)" stroke="#00eaff" stroke-width="1" opacity="0.6"> <path d="M140 130 L230 220 M160 130 L230 200 M130 160 L200 230"/>
        <rect x="170" y="160" width="8" height="5" fill="#00eaff"/>
      </g>
        <path d="M125 120 L245 240" stroke="url(#cyan-blue)" stroke-width="5" filter="url(#strong-glow)" stroke-linecap="round"/> </g>
      <g transform="translate(512,0) scale(-1,1)">
        <use href="#arm-shape" fill="url(#purple-pink)" opacity="0.2"/>
        <g clip-path="url(#arm-shape)" stroke="#ff00f7" stroke-width="1" opacity="0.6">
          <path d="M140 130 L230 220 M160 130 L230 200 M130 160 L200 230"/>
          <rect x="170" y="160" width="8" height="5" fill="#ff00f7"/>
        </g>
        <path d="M125 120 L245 240" stroke="url(#purple-pink)" stroke-width="5" filter="url(#strong-glow)" stroke-linecap="round"/>
      </g>
      <g transform="translate(0,512) scale(1,-1)">
        <use href="#arm-shape" fill="url(#cyan-blue)" opacity="0.2"/>
        <g clip-path="url(#arm-shape)" stroke="#00eaff" stroke-width="1" opacity="0.6">
          <path d="M140 130 L230 220 M160 130 L230 200 M130 160 L200 230"/>
          <rect x="170" y="160" width="8" height="5" fill="#00eaff"/>
        </g>
        <path d="M125 120 L245 240" stroke="url(#cyan-blue)" stroke-width="5" filter="url(#strong-glow)" stroke-linecap="round"/>
      </g>
      <g transform="translate(512,512) scale(-1,-1)">
        <use href="#arm-shape" fill="url(#purple-pink)" opacity="0.2"/>
        <g clip-path="url(#arm-shape)" stroke="#ff00f7" stroke-width="1" opacity="0.6">
          <path d="M140 130 L230 220 M160 130 L230 200 M130 160 L200 230"/>
          <rect x="170" y="160" width="8" height="5" fill="#ff00f7"/>
        </g>
        <path d="M125 120 L245 240" stroke="url(#purple-pink)" stroke-width="5" filter="url(#strong-glow)" stroke-linecap="round"/>
      </g>
    </g>

    <g filter="url(#strong-glow)">
      <ellipse cx="256" cy="215" rx="45" ry="20" fill="#ffffff" stroke="#00ffff" stroke-width="4"/>
      <path d="M211 215 V270 C211 285, 301 285, 301 270 V215" fill="url(#cyan-blue)" fill-opacity="0.4" stroke="#00ffff" stroke-width="4"/>
      <path d="M211 245 C211 260, 301 260, 301 245" stroke="#00ffff" stroke-width="4" fill="none"/>
      <ellipse cx="256" cy="215" rx="35" ry="12" fill="#ffffff" opacity="0.8"/> </g>
  </g>
</svg>